<?xml version="1.0" encoding="utf-8"?>
<!-- Generator: Adobe Illustrator 17.0.0, SVG Export Plug-In . SVG Version: 6.00 Build 0)  -->
<!DOCTYPE svg PUBLIC "-//W3C//DTD SVG 1.1//EN" "http://www.w3.org/Graphics/SVG/1.1/DTD/svg11.dtd">
<svg version="1.1" id="Layer_1" xmlns="http://www.w3.org/2000/svg" xmlns:xlink="http://www.w3.org/1999/xlink" x="0px" y="0px"
	 width="1792px" height="1792px" viewBox="0 0 1792 1792" enable-background="new 0 0 1792 1792" xml:space="preserve">
<path fill="#00d0ff" d="M1160.906,1369.401c0,32.272-11.39,59.798-34.17,82.578s-50.306,34.17-82.578,34.17s-59.917-11.39-82.934-34.17
	s-34.526-50.306-34.526-82.578c0-32.272,11.509-59.917,34.526-82.934c23.017-23.018,50.662-34.526,82.934-34.526
	s59.798,11.509,82.578,34.526C1149.516,1309.484,1160.906,1337.129,1160.906,1369.401z M627.707,1369.401
	c0,32.272-11.509,59.798-34.526,82.578c-23.018,22.78-50.662,34.17-82.934,34.17s-59.798-11.39-82.578-34.17
	s-34.17-50.306-34.17-82.578c0-32.272,11.39-59.917,34.17-82.934c22.78-23.018,50.306-34.526,82.578-34.526
	s59.917,11.509,82.934,34.526C616.199,1309.484,627.707,1337.129,627.707,1369.401z M76,305.851
	c27.051,28.475,53.272,53.272,78.663,74.392c25.39,21.119,54.103,40.577,86.138,58.374c32.035,17.797,64.307,32.746,96.816,44.848
	c32.509,12.102,71.9,22.899,118.172,32.391s93.731,16.966,142.376,22.424c48.645,5.458,107.969,9.848,177.97,13.17
	c70.002,3.322,142.139,5.576,216.412,6.763s162.665,1.78,265.176,1.78c65.968,0,123.986,1.186,174.055,3.559
	s93.019,6.288,128.85,11.746c35.831,5.458,65.256,11.983,88.273,19.577s39.865,16.966,50.544,28.119
	c10.678,11.153,16.373,23.373,17.085,36.662s-3.915,28.475-13.882,45.56c-9.966,17.085-23.373,35.238-40.221,54.459
	s-38.086,40.814-63.713,64.781c-25.628,23.967-53.154,48.764-82.578,74.392s-62.408,53.866-98.951,84.714
	c-87.799,74.51-155.664,133.122-203.598,175.835c13.763-24.204,31.916-50.069,54.459-77.595
	c22.543-27.526,44.849-52.561,66.917-75.103c22.068-22.543,44.493-45.916,67.273-70.12c22.78-24.204,42.476-45.916,59.086-65.137
	c16.611-19.221,29.424-38.323,38.442-57.306c9.017-18.984,12.102-35.594,9.254-49.832s-13.644-27.407-32.391-39.509
	s-46.391-21.831-82.934-29.187c-36.543-7.356-84.951-12.932-145.224-16.729c-60.272-3.797-132.41-4.983-216.412-3.559
	c-79.731,0.949-154.241-0.475-223.531-4.271s-130.037-9.254-182.241-16.373c-52.205-7.119-100.731-16.848-145.58-29.187
	c-44.848-12.339-82.697-24.56-113.545-36.662c-30.848-12.102-59.917-26.933-87.205-44.493s-49.001-33.34-65.137-47.34
	s-32.272-30.967-48.408-50.899c-16.136-19.933-28.119-36.425-35.95-49.476c-7.831-13.051-17.322-29.187-28.475-48.408
	S82.17,314.868,76,305.851z"/>
</svg>
