<?xml version="1.0" encoding="utf-8"?>
<!-- Generator: Adobe Illustrator 17.0.0, SVG Export Plug-In . SVG Version: 6.00 Build 0)  -->
<!DOCTYPE svg PUBLIC "-//W3C//DTD SVG 1.1//EN" "http://www.w3.org/Graphics/SVG/1.1/DTD/svg11.dtd">
<svg version="1.1" id="Layer_1" xmlns="http://www.w3.org/2000/svg" xmlns:xlink="http://www.w3.org/1999/xlink" x="0px" y="0px"
	 width="300px" height="300px" viewBox="0 0 300 300" enable-background="new 0 0 300 300" xml:space="preserve">
<path fill="#00d0ff" d="M260.924,135.923c-7.418,0-13.82,7.081-16.911,17.36l-0.017-0.01c-0.352,1.244-4.635,7.768-10.179,4.893
	s-7.449-6.181-7.187-13.348c0.048-1.316-0.174-2.517-0.565-3.592c1.662-24.656,5.186-47.682,10.2-68.083
	c-22.37,5.349-47.807,8.92-75.031,10.234l-0.272-0.22c0,0-6.47-2.755-5.306-10.013c1.164-7.259,3.942-8.109,6.213-9.428
	c0.018-0.011,0.038-0.034,0.056-0.046c6.552-3.463,10.712-8.544,10.712-14.223c0-10.434-13.975-18.893-31.214-18.893
	c-17.239,0-31.214,8.459-31.214,18.893c0,7.418,7.081,13.82,17.36,16.911l-0.01,0.017c1.244,0.352,7.768,4.635,4.893,10.179
	c-2.408,4.643-5.149,6.709-10.176,7.112c-23.994-0.772-46.735-3.272-67.351-7.224c-4.329,22.22-7.216,46.589-8.362,72.31
	c1.052,1.045,2.361,1.972,4.04,2.842c5.545,2.875,9.827-3.648,10.179-4.893l0.017,0.01c3.091-10.278,9.493-17.36,16.911-17.36
	c10.434,0,18.893,13.975,18.893,31.214c0,17.239-8.459,31.214-18.893,31.214c-5.679,0-10.759-4.16-14.223-10.712
	c-0.012-0.018-0.035-0.038-0.046-0.056c-1.319-2.27-2.169-5.048-9.428-6.213c-3.831-0.615-6.397,0.898-7.976,2.463
	c0.186,29.56,2.653,57.696,6.996,83.29h67.714c1.902-1.151,3.368-2.929,4.721-5.539c2.875-5.545-3.648-9.827-4.893-10.179
	l0.01-0.017c-10.278-3.091-17.36-9.493-17.36-16.911c0-10.434,13.975-18.893,31.214-18.893c17.239,0,31.214,8.459,31.214,18.893
	c0,5.679-4.16,10.759-10.712,14.223c-0.018,0.012-0.038,0.035-0.056,0.046c-2.27,1.319-5.048,2.169-6.213,9.428
	c-0.763,4.756,1.747,7.569,3.571,8.949h81.044c-4.416-21.692-7.206-45.868-8.027-71.47l1.952-2.406c0,0,2.755-6.47,10.013-5.306
	c7.259,1.164,8.109,3.942,9.428,6.213c0.011,0.018,0.034,0.038,0.046,0.056c3.463,6.552,8.544,10.712,14.223,10.712
	c10.434,0,18.893-13.975,18.893-31.214C279.817,149.898,271.359,135.923,260.924,135.923z"/>
</svg>
