<?xml version="1.0" encoding="utf-8"?>
<!-- Generator: Adobe Illustrator 17.0.0, SVG Export Plug-In . SVG Version: 6.00 Build 0)  -->
<!DOCTYPE svg PUBLIC "-//W3C//DTD SVG 1.1//EN" "http://www.w3.org/Graphics/SVG/1.1/DTD/svg11.dtd">
<svg version="1.1" id="Calque_1" xmlns="http://www.w3.org/2000/svg" xmlns:xlink="http://www.w3.org/1999/xlink" x="0px" y="0px"
	 width="300px" height="300px" viewBox="0 0 300 300" enable-background="new 0 0 300 300" xml:space="preserve">
<path fill="#00d0ff" d="M98.233,226.962c2.323-1.034,4.677-1.985,7.053-2.877c2.682-1.008,5.385-1.955,8.125-2.781
	c3.411-1.028,6.85-1.957,10.334-2.697c4.698-0.997,9.454-1.737,14.245-2.202c-2.687,8.448-5.656,16.847-8.874,25.193
	c0.138,1.616,0.213,3.243,0.255,4.873c6.479-1.278,13.172-1.963,20.027-1.963s13.546,0.685,20.027,1.963
	c0.043-1.63,0.116-3.257,0.255-4.873c-3.219-8.346-6.187-16.745-8.874-25.193c4.791,0.465,9.547,1.204,14.245,2.202
	c3.485,0.74,6.923,1.669,10.334,2.697c2.741,0.825,5.444,1.773,8.126,2.781c2.376,0.894,4.732,1.844,7.054,2.878
	c16.482,7.34,31.508,18.228,43.831,32.356c30.888-26.674,50.465-66.092,50.465-110.106C294.862,68.876,229.736,3.75,149.4,3.75
	C69.06,3.75,3.934,68.876,3.934,149.213c0,44.014,19.577,83.432,50.465,110.106C66.723,245.19,81.751,234.302,98.233,226.962z"/>
<path fill="#FFFFFF" d="M82.823,268.962c0.265-2.71,0.427-5.445,0.427-8.208c0-1.662,1.348-3.011,3.011-3.011h2.643l9.329-30.78
	c-16.483,7.34-31.51,18.228-43.834,32.357c6.794,5.866,14.13,11.112,21.933,15.655C78.409,272.881,80.573,270.873,82.823,268.962z"
	/>
<path fill="#00d0ff" d="M106.467,257.742l1.353-4.463l8.07-26.626l-10.603-2.569c-2.375,0.893-4.731,1.843-7.053,2.877l-9.329,30.78
	H98.92H106.467z"/>
<path fill="#00d0ff" d="M190.975,253.28l1.353,4.462h7.545h10.018l-9.329-30.779c-2.323-1.034-4.678-1.985-7.054-2.878
	l-10.602,2.569L190.975,253.28z"/>
<path fill="#C0B098" d="M89.211,263.959c0.092-0.066,0.184-0.13,0.276-0.196h-0.265C89.22,263.829,89.214,263.894,89.211,263.959z"
	/>
<path fill="#00d0ff" d="M149.396,263.763h-21.401h-23.354H89.487c-0.092,0.066-0.184,0.13-0.276,0.196
	c-0.202,5.685-0.962,11.258-2.196,16.68c18.907,8.991,40.053,14.036,62.382,14.036V263.763L149.396,263.763z"/>
<path fill="#AA9678" d="M209.57,263.763h-0.265c0.092,0.066,0.184,0.13,0.276,0.196C209.579,263.894,209.572,263.829,209.57,263.763
	z"/>
<path fill="#00d0ff" d="M209.305,263.763h-15.154h-23.355h-21.4h-0.001v30.912c22.329,0,43.475-5.045,62.382-14.036
	c-1.236-5.423-1.996-10.995-2.197-16.68C209.49,263.893,209.397,263.829,209.305,263.763z"/>
<rect x="149.396" y="260.753" fill="#786453" width="0.001" height="3.011"/>
<path fill="#00d0ff" d="M215.969,268.962c-0.265-2.71-0.427-5.445-0.427-8.208c0-1.662-1.348-3.011-3.011-3.011h-2.641h-10.018
	h-7.545h-22.434h-20.497h-20.5h-22.431h-7.547H88.903H86.26c-1.663,0-3.011,1.349-3.011,3.011c0,2.764-0.163,5.498-0.427,8.208
	c-0.293,2.999-0.756,5.958-1.364,8.874c1.831,0.969,3.678,1.911,5.554,2.804c1.235-5.423,1.996-10.995,2.196-16.68
	c0.002-0.066,0.009-0.13,0.011-0.196h0.265h15.156h23.353h21.401h0.001h21.4h23.356h15.154h0.265
	c0.002,0.066,0.009,0.13,0.011,0.196c0.202,5.685,0.962,11.258,2.197,16.68c1.877-0.893,3.723-1.835,5.554-2.804
	C216.725,274.92,216.263,271.962,215.969,268.962z"/>
<path fill="none" d="M198.352,127.11L198.352,127.11c0.004,0.012,0.008,0.023,0.012,0.036c1.82,5.228,3.884,10.523,4.945,15.971
	c-0.037,0.379-0.074,0.77-0.113,1.173c-0.096,0.585-0.192,1.104-0.292,1.571c0.153-0.718,0.302-1.571,0.448-2.565
	C202.299,137.772,200.195,132.407,198.352,127.11c-0.006,0.012-0.013,0.026-0.019,0.04
	C198.339,127.136,198.346,127.122,198.352,127.11L198.352,127.11z"/>
<path fill="none" d="M240.713,159.994c-0.08,0.047-0.161,0.089-0.243,0.129C240.552,160.084,240.632,160.04,240.713,159.994z"/>
<path fill="none" d="M241.65,159.284c-0.106,0.1-0.209,0.208-0.319,0.296C241.442,159.491,241.544,159.382,241.65,159.284z"/>
<path fill="none" d="M193.976,123.282c-3.343-2.821-6.86-5.394-10.547-7.665l0,0C187.116,117.887,190.631,120.461,193.976,123.282z"
	/>
<path fill="none" d="M227.712,158.143c0.025,0.032,0.051,0.062,0.077,0.094C227.762,158.206,227.737,158.174,227.712,158.143z"/>
<path fill="none" d="M233.873,165.826c0.098,0.125,0.197,0.249,0.295,0.375C234.07,166.075,233.972,165.951,233.873,165.826z"/>
<path fill="none" d="M202.86,146.065c-0.098,0.44-0.196,0.832-0.296,1.129C202.663,146.896,202.763,146.501,202.86,146.065z"/>
<path fill="none" d="M188.6,199.127c-2.225,3.71-3.651,7.224-4.477,10.523C184.949,206.351,186.375,202.838,188.6,199.127
	c0.733-1.221,1.448-2.418,2.145-3.596c-0.691,1.167-1.401,2.354-2.127,3.565C188.612,199.107,188.607,199.117,188.6,199.127z"/>
<path fill="none" d="M198.366,127.083c0.13-0.262,0.264-0.512,0.394-0.771l-0.035,0.03c-0.122,0.242-0.24,0.494-0.361,0.74
	c0.877,0.759,1.744,1.53,2.6,2.312C200.11,128.612,199.243,127.842,198.366,127.083z"/>
<path fill="none" d="M169.493,146.18c0.003,0.01,0.007,0.019,0.011,0.03C169.5,146.199,169.496,146.19,169.493,146.18z"/>
<path fill="none" d="M168.403,143.737l0.001,0.001L168.403,143.737z"/>
<path fill="none" d="M178.255,112.657c-0.202-0.112-0.357-0.197-0.449-0.244C177.898,112.46,178.054,112.545,178.255,112.657z"/>
<path fill="none" d="M178.993,113.07c-0.234-0.132-0.434-0.243-0.617-0.345C178.56,112.827,178.757,112.938,178.993,113.07z"/>
<path fill="none" d="M183.766,124.791c0.004,0.342-0.005,0.685-0.004,1.027C183.761,125.476,183.771,125.134,183.766,124.791z"/>
<path fill="none" d="M169.002,144.919c0.004,0.008,0.008,0.016,0.012,0.024C169.011,144.935,169.006,144.927,169.002,144.919z"/>
<path fill="none" d="M239.809,173.507c0.181,0.237,0.364,0.472,0.543,0.709C240.172,173.979,239.99,173.744,239.809,173.507z"/>
<path fill="none" d="M183.748,129.375c-0.03,1.527-0.081,3.053-0.161,4.579C183.666,132.429,183.719,130.902,183.748,129.375z"/>
<path fill="none" d="M169.86,147.497c0.002,0.011,0.006,0.022,0.008,0.035C169.866,147.519,169.863,147.509,169.86,147.497z"/>
<path fill="none" d="M183.159,115.444c-0.532-0.305-1.924-1.102-3.181-1.817C181.217,114.332,182.597,115.122,183.159,115.444z"/>
<path fill="none" d="M179.899,113.583c-0.315-0.178-0.615-0.348-0.891-0.504C179.283,113.234,179.585,113.405,179.899,113.583z"/>
<path fill="none" d="M183.392,115.578L183.392,115.578c-0.009-0.005-0.07-0.04-0.096-0.055
	C183.336,115.545,183.38,115.57,183.392,115.578z"/>
<path fill="none" d="M244.672,150.917c0.002-0.115,0.02-0.223,0.021-0.339c0-0.014,0.002-0.029,0.002-0.043
	c0-0.013-0.002-0.025-0.002-0.039c0-0.109-0.017-0.209-0.019-0.317c0.002,0.121,0.021,0.233,0.021,0.355
	C244.694,150.665,244.674,150.786,244.672,150.917z"/>
<path fill="none" d="M220.857,150.013c0.139,0.16,0.276,0.322,0.415,0.481c-0.002-0.003-0.005-0.005-0.007-0.008h0.036
	c-0.06-0.07-0.218-0.237-0.441-0.472L220.857,150.013z"/>
<path fill="none" d="M200.966,129.395c1.937,1.772,3.829,3.591,5.699,5.433C204.796,132.984,202.901,131.167,200.966,129.395z"/>
<path fill="none" d="M238.84,140.503c0.357,0,0.702,0.075,1.042,0.18C239.543,140.576,239.197,140.503,238.84,140.503z"/>
<path fill="none" d="M233.247,147.729c-0.031,0.173-0.068,0.339-0.093,0.515C233.178,148.068,233.218,147.903,233.247,147.729z"/>
<path fill="none" d="M240.192,140.798c0.239,0.098,0.471,0.225,0.698,0.371C240.664,141.022,240.432,140.898,240.192,140.798z"/>
<path fill="none" d="M242.42,142.65c0.077,0.105,0.154,0.213,0.229,0.324C242.574,142.862,242.498,142.755,242.42,142.65z"/>
<path fill="none" d="M244.565,148.448c-0.003-0.023-0.009-0.045-0.012-0.068c-0.005-0.039-0.016-0.073-0.021-0.112
	c0.008,0.065,0.026,0.124,0.034,0.189C244.565,148.455,244.565,148.451,244.565,148.448z"/>
<path fill="none" d="M244.551,152.696c0.004-0.029,0.011-0.054,0.015-0.081c0-0.003,0-0.006,0.001-0.008
	c-0.009,0.075-0.03,0.144-0.04,0.219C244.532,152.78,244.545,152.74,244.551,152.696z"/>
<path fill="none" d="M235.03,142.975c0.075-0.112,0.152-0.221,0.231-0.326C235.182,142.755,235.106,142.862,235.03,142.975z"/>
<path fill="none" d="M237.798,140.683c0.34-0.105,0.685-0.18,1.042-0.18C238.483,140.503,238.137,140.576,237.798,140.683z"/>
<path fill="none" d="M211.963,140.229c-0.895-0.94-1.806-1.865-2.715-2.791C210.157,138.363,211.066,139.29,211.963,140.229z"/>
<path fill="none" d="M238.84,108.696L238.84,108.696c0-0.01,0-0.041,0-0.041v13.527l-5.181,23.724
	c-0.017,0.058-0.024,0.125-0.041,0.184c0.013-0.047,0.029-0.091,0.043-0.136l0,0h-0.001l5.181-23.724v-13.527h-0.001V108.696
	L238.84,108.696z"/>
<path fill="none" d="M216.806,145.454c-0.472-0.522-0.947-1.042-1.422-1.561C215.861,144.412,216.334,144.933,216.806,145.454z"/>
<path fill="none" d="M244.019,145.954c0.057,0.188,0.127,0.363,0.177,0.558c-0.001-0.003-0.001-0.006-0.002-0.008
	c-0.05-0.191-0.117-0.362-0.174-0.548h-0.001L244.019,145.954L244.019,145.954z"/>
<path fill="none" d="M232.985,150.487h0.005c0-0.095,0.014-0.182,0.016-0.276C233.004,150.305,232.985,150.391,232.985,150.487z"/>
<path fill="none" d="M236.788,141.17c0.227-0.147,0.459-0.274,0.699-0.371C237.248,140.898,237.015,141.022,236.788,141.17z"/>
<path fill="none" d="M235.729,142.065c0.241-0.261,0.49-0.501,0.753-0.7C236.219,141.566,235.969,141.802,235.729,142.065z"/>
<path fill="none" d="M244.198,154.553c0.001-0.002,0.001-0.005,0.002-0.008c-0.131,0.515-0.288,1.006-0.466,1.471
	c0.182-0.471,0.349-0.962,0.483-1.484l-0.019,0.022L244.198,154.553L244.198,154.553z"/>
<path fill="none" d="M66.925,146.037c0.213-0.338,0.436-0.669,0.652-1.005C67.36,145.369,67.137,145.698,66.925,146.037z"/>
<path fill="none" d="M241.199,141.366c0.263,0.198,0.511,0.44,0.752,0.699C241.711,141.802,241.461,141.566,241.199,141.366z"/>
<path fill="none" d="M71.05,139.979c0.106-0.144,0.204-0.293,0.31-0.436C71.253,139.685,71.155,139.835,71.05,139.979z"/>
<path fill="none" d="M170.199,150.416l0.005-0.002c0-0.008-0.001-0.015-0.001-0.022h0.001h0.023l-0.034-0.077
	C170.194,150.348,170.198,150.381,170.199,150.416z"/>
<path fill="none" d="M60.604,157.629c-0.25,0.532-0.5,1.063-0.74,1.598C60.106,158.692,60.354,158.16,60.604,157.629z"/>
<path fill="none" d="M57.422,165.058c-0.034,0.088-0.07,0.173-0.104,0.261C57.352,165.231,57.388,165.146,57.422,165.058z"/>
<path fill="none" d="M242.443,112.148c-0.004-0.005-0.008-0.01-0.012-0.014l0.001,0.001
	C242.436,112.139,242.44,112.144,242.443,112.148z"/>
<polygon fill="none" points="86.161,123.664 86.15,123.674 86.161,123.665 "/>
<path fill="none" d="M80.468,128.957c0.287-0.289,0.582-0.57,0.873-0.855C81.05,128.387,80.756,128.668,80.468,128.957z"/>
<path fill="none" d="M75.34,134.561c0.293-0.346,0.584-0.694,0.881-1.036C75.923,133.868,75.633,134.215,75.34,134.561z"/>
<polygon fill="none" points="244.021,145.957 238.84,122.231 244.021,145.956 "/>
<path fill="none" d="M153.687,163.925c-0.098-0.02-0.19-0.051-0.287-0.073C153.497,163.873,153.59,163.904,153.687,163.925z"/>
<path fill="none" d="M155.075,164.141c-0.11-0.011-0.216-0.036-0.325-0.05C154.859,164.106,154.965,164.129,155.075,164.141z"/>
<path fill="none" d="M63.792,151.359c-0.328,0.594-0.636,1.197-0.953,1.797C63.157,152.557,63.465,151.954,63.792,151.359z"/>
<path fill="none" d="M149.816,162.47c-0.006-0.003-0.011-0.007-0.017-0.011C149.805,162.463,149.81,162.467,149.816,162.47z"/>
<path fill="none" d="M152.341,163.569c-0.064-0.02-0.125-0.048-0.188-0.069C152.216,163.522,152.277,163.548,152.341,163.569z"/>
<path fill="none" d="M151.047,163.082c-0.033-0.014-0.063-0.032-0.095-0.046C150.984,163.051,151.015,163.068,151.047,163.082z"/>
<path fill="none" d="M143.811,155.684c0.004,0.011,0.007,0.022,0.012,0.033C143.818,155.706,143.815,155.695,143.811,155.684z"/>
<path fill="none" d="M143.164,147.388c-0.023,0.101-0.056,0.198-0.077,0.3C143.109,147.586,143.14,147.489,143.164,147.388z"/>
<path fill="none" d="M144.581,143.757c-0.007,0.014-0.016,0.027-0.024,0.041C144.565,143.783,144.573,143.77,144.581,143.757z"/>
<path fill="none" d="M149.127,138.97c-0.002,0.001-0.005,0.002-0.006,0.004C149.122,138.972,149.124,138.971,149.127,138.97z"/>
<path fill="none" d="M143.523,146.123c-0.024,0.071-0.054,0.14-0.077,0.213C143.468,146.263,143.5,146.195,143.523,146.123z"/>
<path fill="none" d="M143.995,144.915c-0.018,0.041-0.04,0.079-0.058,0.121C143.955,144.994,143.978,144.955,143.995,144.915z"/>
<path fill="none" d="M159.19,137.073c-0.021-0.004-0.043-0.006-0.064-0.01C159.148,137.068,159.169,137.069,159.19,137.073z"/>
<path fill="none" d="M161.682,137.827c-0.013-0.005-0.026-0.009-0.04-0.014C161.655,137.818,161.67,137.822,161.682,137.827z"/>
<path fill="none" d="M151.419,137.788c-0.02,0.008-0.042,0.014-0.062,0.022C151.377,137.804,151.398,137.796,151.419,137.788z"/>
<path fill="none" d="M153.915,137.057c-0.03,0.006-0.06,0.008-0.09,0.013C153.854,137.065,153.886,137.063,153.915,137.057z"/>
<path fill="none" d="M170.098,148.881c0.001,0.006,0.002,0.012,0.003,0.019C170.1,148.894,170.098,148.888,170.098,148.881z"/>
<path fill="none" d="M156.574,106.408c0-0.212,0-0.414,0-0.594C156.574,105.995,156.574,106.192,156.574,106.408z"/>
<path fill="none" d="M156.574,105.453c0-0.138,0-0.263,0-0.359C156.574,105.192,156.574,105.309,156.574,105.453z"/>
<path fill="none" d="M156.574,104.899c0-0.049-0.001-0.076-0.001-0.076S156.574,104.849,156.574,104.899z"/>
<path fill="none" d="M156.574,108.24v-0.21v-0.608c0-0.199-0.001-0.395-0.001-0.584C156.574,107.281,156.574,107.758,156.574,108.24
	z"/>
<path fill="none" d="M242.855,157.804c-0.147,0.238-0.306,0.451-0.468,0.662C242.549,158.256,242.707,158.041,242.855,157.804z"/>
<path fill="none" d="M142.917,148.755c-0.013,0.11-0.039,0.216-0.05,0.326C142.88,148.971,142.904,148.865,142.917,148.755z"/>
<path fill="none" d="M143.054,153.159c0.004,0.017,0.005,0.037,0.008,0.054C143.059,153.195,143.058,153.176,143.054,153.159z"/>
<path fill="none" d="M243.582,156.377c-0.14,0.335-0.295,0.649-0.458,0.952C243.287,157.027,243.44,156.711,243.582,156.377z"/>
<path fill="#525353" d="M191.046,236.986c-0.439-0.505-0.892-1.044-1.361-1.658C190.155,235.942,190.607,236.481,191.046,236.986
	L191.046,236.986z"/>
<path fill="#AA9678" d="M194.392,240.308c0,0,0.011,0.034,0.031,0.095C194.402,240.342,194.392,240.308,194.392,240.308
	s-1.475-1.168-3.346-3.322l0,0C192.917,239.14,194.392,240.308,194.392,240.308z"/>
<ellipse fill="#FFFFFF" cx="238.816" cy="108.714" rx="0.004" ry="0.004"/>
<path fill="#FFFFFF" d="M244.693,150.578c0-0.014,0.002-0.029,0.002-0.043l0,0C244.695,150.549,244.693,150.563,244.693,150.578z"/>
<path fill="#FFFFFF" d="M246.248,116.842l-0.001-0.001L246.248,116.842c-0.024-0.033-0.049-0.062-0.072-0.095l0.002,0.001
	c-1.209-1.678-2.456-3.21-3.734-4.6c-0.004-0.004-0.007-0.009-0.011-0.013c0.004,0.004,0.008,0.009,0.011,0.013
	c-0.011-0.012-0.022-0.026-0.034-0.039v0.001c-0.581-0.63-1.168-1.233-1.763-1.801c-0.225-0.215-0.456-0.404-0.683-0.609
	c-0.375-0.34-0.746-0.69-1.125-1.001v0.007v13.527l5.181,23.726v-0.001c0.056,0.185,0.124,0.356,0.174,0.548l3.59,4.022l0.036-0.04
	h3.756c0.005-0.348,0.026-0.692,0.026-1.041v-0.006c-0.001-11.19-1.839-21.943-5.17-32.017v0.001
	C246.368,117.23,246.313,117.034,246.248,116.842z"/>
<path fill="#BBBCBD" d="M244.695,150.535c0-0.013-0.002-0.025-0.002-0.039C244.693,150.508,244.695,150.522,244.695,150.535
	L244.695,150.535z"/>
<path fill="#00d0ff" d="M244.531,148.268c0.005,0.039,0.016,0.073,0.021,0.112c0.003,0.023,0.009,0.045,0.012,0.068
	c0,0.003,0,0.006,0.001,0.009c0.068,0.557,0.096,1.136,0.108,1.722c0.002,0.108,0.019,0.208,0.019,0.317
	c0,0.013,0.002,0.025,0.002,0.039c0,0.015-0.002,0.029-0.002,0.043c-0.001,0.116-0.018,0.224-0.021,0.339
	c-0.013,0.574-0.039,1.143-0.106,1.688c-0.001,0.003-0.001,0.006-0.001,0.008c-0.004,0.028-0.011,0.054-0.015,0.081
	c-0.005,0.045-0.018,0.084-0.024,0.128c-0.081,0.594-0.186,1.172-0.326,1.721c-0.001,0.002-0.001,0.005-0.002,0.008v0.001
	l0.019-0.022c0.002-0.009,0.006-0.017,0.008-0.027v0.001l3.558-3.98l-3.59-4.022c0.001,0.003,0.001,0.006,0.002,0.008
	C244.34,147.071,244.449,147.661,244.531,148.268z"/>
<path fill="#00d0ff" d="M244.526,152.824c0.011-0.075,0.032-0.144,0.04-0.219c0.067-0.546,0.093-1.114,0.106-1.688
	c0.002-0.129,0.022-0.251,0.022-0.382c0-0.122-0.018-0.235-0.021-0.355c-0.012-0.586-0.04-1.165-0.108-1.722
	c-0.008-0.065-0.025-0.124-0.034-0.189c-0.082-0.608-0.191-1.197-0.334-1.756c-0.05-0.195-0.12-0.369-0.177-0.558
	c-0.344-1.139-0.814-2.144-1.37-2.98c-0.075-0.111-0.152-0.22-0.229-0.324c-0.152-0.206-0.306-0.406-0.469-0.585
	c-0.24-0.261-0.49-0.501-0.752-0.699c-0.1-0.076-0.206-0.129-0.308-0.195c-0.227-0.147-0.459-0.274-0.698-0.371
	c-0.103-0.042-0.206-0.082-0.31-0.116c-0.34-0.105-0.685-0.18-1.042-0.18c-0.357,0-0.703,0.075-1.042,0.18
	c-0.105,0.033-0.208,0.073-0.31,0.116c-0.24,0.098-0.472,0.225-0.699,0.371c-0.102,0.066-0.208,0.119-0.306,0.195
	c-0.264,0.199-0.512,0.44-0.753,0.7c-0.163,0.179-0.317,0.379-0.468,0.583c-0.078,0.105-0.155,0.215-0.231,0.326
	c-0.557,0.836-1.027,1.841-1.37,2.98c-0.014,0.046-0.03,0.09-0.043,0.136c-0.152,0.522-0.27,1.074-0.369,1.638
	c-0.03,0.173-0.069,0.338-0.093,0.515c-0.091,0.632-0.136,1.291-0.149,1.966c-0.002,0.094-0.016,0.181-0.016,0.276h0.023
	c0,5.541,2.622,10.032,5.855,10.032c0.557,0,1.092-0.146,1.602-0.395c0.081-0.041,0.163-0.082,0.243-0.129
	c0.212-0.121,0.419-0.254,0.619-0.414c0.11-0.089,0.213-0.196,0.319-0.296c0.259-0.241,0.504-0.514,0.737-0.817
	c0.161-0.212,0.321-0.423,0.468-0.662c0.095-0.151,0.181-0.314,0.269-0.475c0.163-0.302,0.318-0.617,0.458-0.952
	c0.051-0.12,0.105-0.237,0.153-0.361c0.178-0.465,0.335-0.956,0.466-1.471C244.34,153.996,244.445,153.419,244.526,152.824z
	 M239.049,149.199c-1.212,0-2.195-1.684-2.195-3.762c0-2.077,0.983-3.762,2.195-3.762c1.213,0,2.195,1.684,2.195,3.762
	C241.245,147.514,240.263,149.199,239.049,149.199z"/>
<ellipse fill="#FFFFFF" cx="239.049" cy="145.437" rx="2.195" ry="3.762"/>
<path fill="#00d0ff" d="M233.66,145.955L233.66,145.955c0.344-1.139,0.814-2.144,1.37-2.981c0.075-0.113,0.152-0.22,0.231-0.326
	c0.152-0.205,0.305-0.405,0.468-0.583c0.24-0.264,0.491-0.499,0.753-0.7c0.099-0.076,0.206-0.128,0.306-0.195
	c0.227-0.149,0.459-0.273,0.699-0.371c0.103-0.043,0.206-0.082,0.31-0.116c0.339-0.106,0.684-0.18,1.042-0.18
	c0.357,0,0.703,0.074,1.042,0.18c0.105,0.033,0.208,0.073,0.31,0.116c0.239,0.099,0.471,0.223,0.698,0.371
	c0.103,0.067,0.209,0.119,0.308,0.195c0.262,0.202,0.512,0.437,0.752,0.699c0.164,0.179,0.318,0.38,0.469,0.585
	c0.077,0.106,0.154,0.212,0.229,0.324c0.557,0.836,1.026,1.841,1.37,2.98l0.001,0.002h0.001l-5.181-23.725l-5.181,23.724
	L233.66,145.955L233.66,145.955z"/>
<path fill="#00d0ff" d="M170.192,150.313c-0.007-0.477-0.039-0.949-0.093-1.413c-0.001-0.006-0.002-0.012-0.003-0.019
	c-0.054-0.457-0.13-0.908-0.229-1.351c-0.002-0.011-0.006-0.022-0.008-0.035c-0.099-0.438-0.217-0.867-0.355-1.288
	c-0.004-0.01-0.008-0.019-0.011-0.03c-0.14-0.421-0.3-0.834-0.479-1.236c-0.004-0.008-0.008-0.016-0.012-0.024
	c-0.181-0.404-0.381-0.798-0.598-1.181l-0.001-0.001c-0.666-1.165-1.497-2.225-2.463-3.144c-1.226-1.168-2.668-2.112-4.258-2.766
	c-0.012-0.005-0.026-0.009-0.04-0.014c-0.784-0.32-1.604-0.57-2.453-0.74c-0.021-0.004-0.043-0.006-0.064-0.01
	c-0.851-0.167-1.728-0.259-2.629-0.259c-0.884,0-1.746,0.091-2.583,0.251c-0.03,0.006-0.06,0.008-0.09,0.013
	c-0.833,0.166-1.637,0.409-2.407,0.719c-0.02,0.008-0.042,0.014-0.062,0.022c-0.782,0.319-1.529,0.706-2.231,1.158
	c-0.002,0.001-0.005,0.002-0.006,0.004c-0.708,0.456-1.373,0.975-1.985,1.549l-0.015,0.047l-0.05,0.012
	c-0.977,0.927-1.816,1.997-2.487,3.174c-0.008,0.014-0.016,0.027-0.024,0.041c-0.205,0.362-0.39,0.736-0.562,1.118
	c-0.018,0.041-0.04,0.079-0.058,0.121c-0.156,0.354-0.289,0.719-0.414,1.088c-0.023,0.071-0.055,0.14-0.077,0.213
	c-0.11,0.343-0.198,0.697-0.282,1.051c-0.023,0.101-0.056,0.198-0.077,0.3c-0.073,0.35-0.123,0.707-0.169,1.067
	c-0.013,0.11-0.039,0.216-0.05,0.326c-0.049,0.47-0.075,0.947-0.075,1.429c0,0.907,0.093,1.791,0.262,2.648
	c0.004,0.017,0.005,0.037,0.008,0.054c0.172,0.856,0.424,1.681,0.749,2.471c0.004,0.01,0.007,0.022,0.012,0.033
	c0.66,1.598,1.613,3.045,2.792,4.274c0.931,0.971,2.004,1.805,3.184,2.47c0.006,0.003,0.011,0.007,0.017,0.011
	c0.368,0.207,0.749,0.393,1.137,0.566c0.033,0.014,0.063,0.032,0.095,0.046c0.359,0.157,0.73,0.292,1.105,0.417
	c0.063,0.021,0.124,0.049,0.188,0.069c0.346,0.111,0.702,0.198,1.059,0.282c0.097,0.022,0.189,0.053,0.287,0.073
	c0.348,0.073,0.704,0.121,1.063,0.167c0.109,0.014,0.215,0.039,0.325,0.05c0.468,0.049,0.942,0.074,1.424,0.074
	c1.892,0,3.696-0.384,5.335-1.077c0.819-0.347,1.599-0.77,2.328-1.264c1.458-0.985,2.716-2.243,3.703-3.702
	c0.493-0.729,0.916-1.508,1.263-2.328c0.693-1.64,1.077-3.442,1.077-5.334c0-0.032-0.005-0.063-0.005-0.095l0,0
	C170.198,150.381,170.194,150.348,170.192,150.313L170.192,150.313z M156.497,148.707c-2.844,0-5.149-2.305-5.149-5.149
	c0-2.844,2.305-5.149,5.149-5.149s5.149,2.305,5.149,5.149C161.646,146.402,159.341,148.707,156.497,148.707z"/>
<circle fill="#FFFFFF" cx="156.497" cy="143.558" r="5.149"/>
<path fill="#FFFFFF" d="M147.069,140.581L147.069,140.581l0.05-0.012l0.015-0.047l0,0l9.439-28.866c0,0,0-1.708,0-3.417
	c-0.001-0.481-0.001-0.958-0.001-1.4c0-0.147,0-0.294,0-0.431c0-0.216,0-0.412,0-0.594c0-0.128,0-0.252,0-0.359
	c0-0.144,0-0.261,0-0.359c0-0.08,0-0.15,0-0.194c0-0.05-0.001-0.076-0.001-0.076c-5.257-1.077-10.662-1.67-16.194-1.67
	c-1.847,0-3.678,0.078-5.499,0.202c-0.266,0.017-0.531,0.035-0.797,0.055c-9.474,0.72-18.804,3.189-27.443,7.134
	c-7.409,3.383-14.292,7.838-20.48,13.122l0,0c-0.004,0.003-0.007,0.006-0.011,0.009c-1.662,1.412-3.253,2.902-4.809,4.427
	c-0.29,0.285-0.586,0.566-0.873,0.855c-1.465,1.475-2.879,3-4.247,4.569c-0.298,0.342-0.588,0.69-0.881,1.036
	c-1.373,1.621-2.711,3.273-3.979,4.981c-0.106,0.144-0.205,0.292-0.31,0.436c-1.21,1.647-2.362,3.336-3.472,5.054
	c-0.217,0.335-0.44,0.667-0.652,1.005c-0.898,1.424-1.733,2.887-2.563,4.353h42.923h0.075L147.069,140.581z"/>
<path fill="#FFFFFF" d="M183.37,137.332c0.088-1.126,0.159-2.251,0.218-3.378c0.078-1.526,0.131-3.052,0.161-4.579
	c0.022-1.185,0.019-2.37,0.015-3.556c-0.002-0.342,0.007-0.684,0.004-1.027c-0.032-3.056-0.151-6.115-0.338-9.175l0,0l0,0
	c-0.008-0.005-0.016-0.011-0.025-0.016c-0.004-0.008-0.008-0.015-0.012-0.022c-0.012-0.007-0.056-0.032-0.096-0.055
	c-0.037-0.021-0.068-0.04-0.136-0.078c-0.562-0.323-1.942-1.112-3.181-1.817c-0.026-0.014-0.053-0.031-0.078-0.045
	c-0.313-0.178-0.616-0.349-0.891-0.504c-0.005-0.003-0.011-0.006-0.016-0.009c-0.236-0.132-0.434-0.243-0.617-0.345
	c-0.037-0.02-0.088-0.049-0.121-0.068c-0.202-0.112-0.357-0.197-0.449-0.244c-1.978-1.026-3.994-1.974-6.046-2.841
	c-4.889-2.065-11.476-3.875-15.187-4.749v2.599v0.608v0.21c0,1.708,0,3.417,0,3.417l9.355,28.914l0.011,0.024
	c0.965,0.92,1.797,1.979,2.463,3.144l0.001,0.001c0.218,0.383,0.417,0.777,0.598,1.181c0.004,0.008,0.008,0.016,0.012,0.024
	c0.179,0.402,0.339,0.814,0.479,1.236c0.003,0.01,0.007,0.019,0.011,0.03c0.139,0.42,0.258,0.851,0.355,1.288
	c0.002,0.011,0.006,0.022,0.008,0.035c0.099,0.443,0.175,0.893,0.229,1.351c0.001,0.006,0.002,0.012,0.003,0.019
	c0.054,0.464,0.085,0.935,0.093,1.413l0,0l0.034,0.077h11.456c0.775-4.192,1.314-8.44,1.656-12.707
	C183.347,137.566,183.36,137.449,183.37,137.332z"/>
<path fill="#FBB040" d="M198.352,127.109c-0.006,0.013-0.013,0.027-0.019,0.041c0.006-0.013,0.013-0.026,0.02-0.04L198.352,127.109z
	"/>
<path fill="#00d0ff" d="M170.291,191.591c2.598-2.585,5.053-5.063,7.393-7.49c1.39-1.442,2.75-2.87,4.048-4.279
	c9.574-10.392,16.604-20.118,20.832-32.63c0.1-0.297,0.199-0.689,0.296-1.129c0.015-0.068,0.031-0.132,0.045-0.204
	c0.099-0.467,0.196-0.986,0.292-1.571c0.039-0.403,0.077-0.795,0.113-1.173c-1.062-5.448-3.126-10.743-4.945-15.971
	c0.006,0.018,0.013,0.036,0.019,0.054c-0.01-0.009-0.045-0.044-0.052-0.05c-0.349-0.331-0.715-0.64-1.069-0.966
	c-1.077-0.993-2.173-1.961-3.287-2.903c-3.344-2.821-6.86-5.394-10.547-7.665l0,0c0.187,3.061,0.306,6.12,0.338,9.175
	c0.004,0.342-0.005,0.685-0.004,1.027c0.005,1.186,0.008,2.371-0.015,3.556c-0.03,1.527-0.081,3.053-0.161,4.579
	c-0.058,1.127-0.13,2.252-0.218,3.378c-0.009,0.117-0.022,0.234-0.031,0.351c-0.341,4.266-0.881,8.515-1.656,12.707l-1.345,6.363
	c-2.81,11.393-8.519,21.728-13.212,32.399c-1.245,2.83-2.425,5.69-3.46,8.605c-0.095,0.269-0.195,0.548-0.293,0.824
	c1.466-1.54,2.763-2.872,3.75-3.85C168.199,193.667,169.255,192.621,170.291,191.591z"/>
<path fill="#00d0ff" d="M147.135,140.522L147.135,140.522c0.612-0.574,1.276-1.093,1.985-1.549c0.002-0.001,0.004-0.002,0.006-0.004
	c0.702-0.451,1.448-0.84,2.231-1.158c0.02-0.008,0.042-0.014,0.062-0.022c0.77-0.309,1.574-0.553,2.407-0.719
	c0.03-0.006,0.06-0.008,0.09-0.013c0.837-0.161,1.699-0.251,2.583-0.251c0.901,0,1.778,0.092,2.629,0.258
	c0.021,0.004,0.043,0.005,0.064,0.01c0.849,0.17,1.669,0.42,2.453,0.74c0.013,0.005,0.026,0.009,0.04,0.014
	c1.591,0.654,3.032,1.598,4.258,2.766l-0.011-0.024l-9.355-28.914L147.135,140.522z"/>
<path fill="#00d0ff" d="M143.811,155.684c-0.324-0.79-0.577-1.615-0.749-2.471c-0.004-0.017-0.005-0.037-0.008-0.054
	c-0.169-0.857-0.262-1.741-0.262-2.648c0-0.483,0.026-0.96,0.075-1.429c0.011-0.11,0.036-0.217,0.05-0.326
	c0.047-0.359,0.096-0.718,0.169-1.067c0.021-0.102,0.054-0.199,0.077-0.3c0.083-0.355,0.171-0.708,0.282-1.051
	c0.023-0.072,0.053-0.141,0.077-0.213c0.125-0.368,0.259-0.734,0.414-1.088c0.018-0.041,0.04-0.08,0.058-0.121
	c0.172-0.382,0.357-0.756,0.562-1.118c0.008-0.014,0.017-0.027,0.024-0.041c0.672-1.178,1.511-2.247,2.487-3.174l0,0l-39.708,9.809
	h-0.075l39.33,9.6c-1.179-1.228-2.132-2.676-2.792-4.274C143.818,155.706,143.815,155.695,143.811,155.684z"/>
<path fill="#FFFFFF" d="M233.154,148.245c0.025-0.177,0.063-0.342,0.093-0.515c0.1-0.565,0.219-1.116,0.369-1.638
	c0.016-0.059,0.023-0.126,0.041-0.184l5.181-23.724l-0.001-13.527c-4.233-3.496-8.766-5.407-13.487-5.407
	c-5.963,0-11.523,3.291-15.682,7.359c-4.55,4.451-8.066,10.052-10.909,15.703c-0.13,0.26-0.265,0.51-0.394,0.771
	c0.877,0.758,1.743,1.529,2.599,2.311c1.937,1.772,3.831,3.59,5.7,5.433c0.871,0.859,1.725,1.737,2.582,2.611
	c0.909,0.926,1.82,1.849,2.715,2.791c1.151,1.21,2.293,2.432,3.423,3.665c0.475,0.519,0.95,1.039,1.422,1.561
	c1.362,1.508,2.716,3.023,4.051,4.558l0.002,0.002c0.223,0.234,0.381,0.402,0.441,0.472h11.684c0-0.096,0.019-0.181,0.021-0.276
	C233.017,149.535,233.063,148.876,233.154,148.245z"/>
<path fill="#E2DDDB" d="M198.365,127.146c-0.004-0.012-0.008-0.024-0.012-0.036l0,0c-0.006,0.013-0.013,0.026-0.02,0.04
	c0.007,0.006,0.042,0.041,0.052,0.05C198.378,127.181,198.371,127.164,198.365,127.146z"/>
<path fill="#FFFFFF" d="M57.318,165.319c0.034-0.088,0.07-0.173,0.104-0.261c0.752-1.967,1.577-3.908,2.443-5.832
	c0.241-0.536,0.491-1.066,0.74-1.598c0.708-1.509,1.458-2.997,2.236-4.472c0.317-0.6,0.625-1.203,0.953-1.797
	c0.181-0.329,0.386-0.642,0.57-0.969c0.829-1.467,1.664-2.929,2.563-4.353c0.213-0.338,0.436-0.669,0.652-1.005
	c1.11-1.718,2.262-3.407,3.472-5.054c0.106-0.144,0.204-0.293,0.31-0.436c1.268-1.708,2.606-3.36,3.979-4.981
	c0.293-0.346,0.583-0.694,0.881-1.036c1.368-1.568,2.783-3.093,4.247-4.569c0.288-0.289,0.582-0.57,0.873-0.855
	c1.556-1.526,3.148-3.016,4.809-4.427c0.004-0.003,0.007-0.007,0.011-0.01c6.534-21.892,26.529-37.829,50.191-37.829
	c9.524,0,18.995,2.744,27.112,7.71c8.324,5.092,15.11,12.552,19.517,21.249c0.022,0.044,0.044,0.088,0.065,0.13
	c0.111,0.221,0.236,0.433,0.346,0.653l0,0l0,0c0.004,0.007,0.008,0.015,0.012,0.022c0.008,0.005,0.016,0.011,0.025,0.016
	c3.687,2.271,7.203,4.844,10.547,7.665c1.115,0.94,2.211,1.908,3.287,2.903c0.353,0.326,0.72,0.635,1.069,0.966
	c0.006-0.013,0.013-0.027,0.019-0.041c0.005-0.008,0.009-0.017,0.013-0.026c0.12-0.247,0.238-0.498,0.361-0.74
	c3.334-21.044,12.616-36.203,23.565-36.203c8.252,0,15.563,8.606,20.093,21.851l0.046,0.142c0.004,0.005,0.008,0.01,0.012,0.014
	c1.279,1.39,2.526,2.922,3.734,4.6l-0.002-0.001c0.023,0.033,0.048,0.062,0.072,0.095l-0.001-0.001l0.001,0.001
	c0.065,0.192,0.12,0.389,0.183,0.582v-0.001l-0.172-0.69c-13.62-40.323-51.759-69.354-96.678-69.354
	c-56.344,0-102.02,45.675-102.02,102.019c0,11.108,1.775,21.801,5.071,31.752c0.004-0.019,0.009-0.039,0.013-0.058
	c0.648-3.001,1.425-5.984,2.328-8.936C55.679,169.856,56.462,167.574,57.318,165.319z"/>
<path fill="#FFFFFF" d="M247.785,150.526l-3.558,3.98v-0.001c-0.002,0.009-0.006,0.017-0.008,0.027
	c-0.135,0.522-0.301,1.013-0.483,1.484c-0.048,0.124-0.102,0.241-0.153,0.361c-0.141,0.334-0.294,0.65-0.458,0.952
	c-0.088,0.161-0.175,0.325-0.269,0.475c-0.148,0.237-0.306,0.452-0.468,0.662c-0.233,0.303-0.478,0.576-0.737,0.817
	c-0.106,0.099-0.209,0.208-0.319,0.296c-0.199,0.16-0.407,0.293-0.619,0.414c-0.08,0.046-0.161,0.089-0.243,0.129
	c-0.51,0.249-1.045,0.395-1.602,0.395c-3.233,0-5.855-4.491-5.855-10.032h-0.023h-0.005h-11.684h-0.036
	c0.002,0.003,0.005,0.005,0.007,0.008c2.18,2.519,4.324,5.072,6.439,7.649c0.025,0.032,0.051,0.062,0.077,0.094
	c2.056,2.508,4.081,5.041,6.084,7.589c0.099,0.125,0.196,0.249,0.295,0.375c1.901,2.422,3.778,4.861,5.64,7.307
	c0.181,0.237,0.363,0.472,0.543,0.709c1.969,2.591,3.921,5.19,5.858,7.79c0.013,0.018,0.026,0.037,0.041,0.055
	c3.357-9.931,5.233-20.539,5.35-31.575h-0.026h-3.756L247.785,150.526z"/>
<path fill="#00d0ff" d="M134.083,103.409c0.266-0.02,0.531-0.037,0.797-0.055c1.82-0.124,3.651-0.202,5.499-0.202
	c5.532,0,10.937,0.593,16.194,1.67c0,0,0.001,0.027,0.001,0.076c0,0.045,0,0.114,0,0.194c0,0.097,0,0.221,0,0.359
	c0,0.107,0,0.232,0,0.359c0,0.18,0,0.383,0,0.594c0,0.137,0,0.284,0,0.431c0,0.188,0.001,0.385,0.001,0.584v-2.599
	c3.711,0.874,10.297,2.684,15.187,4.749c2.052,0.866,4.069,1.816,6.046,2.841c0.092,0.047,0.247,0.132,0.449,0.244
	c0.034,0.018,0.084,0.048,0.121,0.068c0.183,0.102,0.383,0.214,0.617,0.345c0.005,0.003,0.011,0.006,0.016,0.009
	c0.275,0.155,0.575,0.325,0.891,0.504c0.025,0.014,0.053,0.031,0.078,0.045c1.257,0.713,2.649,1.511,3.181,1.817
	c0.068,0.039,0.1,0.057,0.136,0.078c0.025,0.015,0.087,0.05,0.096,0.055l0,0c-0.11-0.222-0.235-0.434-0.346-0.653
	c-0.021-0.044-0.044-0.088-0.065-0.13c-4.407-8.697-11.192-16.157-19.517-21.249c-8.117-4.966-17.587-7.71-27.112-7.71
	c-23.661,0-43.656,15.937-50.191,37.829c6.187-5.284,13.07-9.739,20.48-13.122C115.279,106.598,124.609,104.129,134.083,103.409z"/>
<line fill="none" x1="156.574" y1="107.422" x2="156.574" y2="108.03"/>
<path fill="#00d0ff" d="M209.67,110.609c4.159-4.068,9.719-7.359,15.682-7.359c4.72,0,9.255,1.911,13.487,5.407
	c0,0,0.001,0.031,0.001,0.041l0.001,0.007v-0.007c0.379,0.311,0.75,0.663,1.125,1.001c0.227,0.206,0.458,0.394,0.683,0.609
	c0.594,0.569,1.182,1.171,1.763,1.801v-0.001c0.011,0.012,0.022,0.026,0.034,0.039c-0.004-0.004-0.008-0.009-0.011-0.013
	l-0.001-0.001l-0.047-0.142c-4.53-13.245-11.841-21.851-20.093-21.851c-10.949,0-20.231,15.159-23.565,36.203l0.035-0.03
	C201.604,120.66,205.12,115.06,209.67,110.609z"/>
<path fill="#FFFFFF" d="M113.054,244.563c0.931,0.357,1.879,0.681,2.823,1.012c10.553,3.698,21.887,5.734,33.704,5.734
	c13.474,0,26.327-2.637,38.102-7.383c0.623-0.251,1.233-0.526,1.849-0.789c0.999-0.425,1.993-0.863,2.976-1.32
	c0.879-0.408,1.76-0.813,2.625-1.247c-0.209,0.026-0.418,0.066-0.627,0.09l0,0c-3.661,0.412-7.294,0.437-10.843-0.074
	c-20.991-3.018-25.642-13.138-24.976-23.679c-1.51-0.871-3.049-1.851-4.613-2.986c-16.144-11.712-25.726-24.189-25.726-24.189
	s12.453,9.613,31.055,16.808c0.399,0.155,0.772,0.288,1.164,0.436c0.868-3.004,1.898-5.861,2.802-8.395l0,0
	c0.099-0.276,0.198-0.556,0.293-0.824c1.035-2.915,2.215-5.775,3.46-8.605c4.693-10.67,10.402-21.007,13.212-32.399l1.345-6.363
	h-11.454h-0.023h-0.001c0,0.008,0.001,0.015,0.001,0.022l-0.005,0.002l0,0c0,0.032,0.005,0.062,0.005,0.095
	c0,1.892-0.384,3.694-1.077,5.334c-0.347,0.82-0.771,1.599-1.263,2.328c-0.985,1.458-2.244,2.716-3.703,3.702
	c-0.729,0.493-1.508,0.917-2.328,1.264c-1.64,0.693-3.442,1.077-5.335,1.077c-0.48,0-0.955-0.025-1.424-0.074
	c-0.11-0.011-0.216-0.036-0.325-0.05c-0.358-0.046-0.714-0.095-1.063-0.167c-0.098-0.02-0.19-0.051-0.287-0.073
	c-0.357-0.083-0.713-0.171-1.059-0.282c-0.064-0.02-0.125-0.048-0.188-0.069c-0.375-0.126-0.746-0.262-1.105-0.417
	c-0.033-0.014-0.063-0.032-0.095-0.046c-0.388-0.173-0.768-0.359-1.137-0.566c-0.006-0.003-0.011-0.007-0.017-0.011
	c-1.18-0.666-2.252-1.499-3.184-2.47l-39.33-9.6H64.362c-0.184,0.327-0.389,0.641-0.57,0.969c-0.328,0.594-0.636,1.198-0.953,1.797
	c-0.778,1.475-1.528,2.964-2.236,4.472c-0.25,0.531-0.499,1.064-0.74,1.598c-0.866,1.924-1.691,3.864-2.443,5.832
	c-0.034,0.088-0.07,0.173-0.104,0.261c-0.856,2.255-1.639,4.536-2.343,6.837c-0.903,2.952-1.68,5.935-2.328,8.936
	c6.758,20.61,19.904,38.319,37.091,50.802c0.5,0.362,1.027,0.686,1.534,1.04c2.907,2.031,5.91,3.934,9.027,5.66
	C104.39,240.86,108.642,242.87,113.054,244.563z"/>
<path fill="#FFFFFF" d="M183.491,212.876c-0.156,1.094-0.262,2.167-0.294,3.205c-0.06,1.886,0.071,3.679,0.345,5.373
	c0.182,1.129,0.428,2.215,0.725,3.254c0.444,1.559,1,3.015,1.622,4.36c0.622,1.345,1.31,2.582,2.016,3.703
	c0.236,0.374,0.473,0.734,0.711,1.082c0.358,0.521,0.715,1.013,1.069,1.475c0.469,0.614,0.922,1.153,1.361,1.658
	c1.872,2.154,3.346,3.322,3.346,3.322s0.011,0.034,0.031,0.095c0.019,0.061,0.049,0.15,0.085,0.259l0,0
	c0.209-0.023,0.418-0.063,0.627-0.09c4.549-0.57,9.131-1.802,13.653-3.428c2.306-0.829,4.602-1.728,6.861-2.759
	c0.689-0.314,1.364-0.665,2.047-0.994c23.368-11.3,42.937-31.286,42.937-31.286C231.271,216.53,202.575,215.956,183.491,212.876z"/>
<path fill="#00d0ff" d="M239.809,173.507c-1.863-2.445-3.74-4.883-5.64-7.307c-0.098-0.125-0.197-0.249-0.295-0.375
	c-2.003-2.548-4.028-5.081-6.084-7.589c-0.025-0.032-0.051-0.062-0.077-0.094c-2.114-2.577-4.258-5.13-6.439-7.649
	c-0.139-0.16-0.276-0.322-0.415-0.481c-1.334-1.535-2.689-3.05-4.051-4.558c-0.472-0.522-0.946-1.043-1.422-1.561
	c-1.13-1.233-2.272-2.454-3.423-3.665c-0.896-0.939-1.805-1.866-2.715-2.791c-0.857-0.873-1.711-1.752-2.582-2.611
	c-1.871-1.842-3.764-3.662-5.699-5.433c-0.856-0.783-1.723-1.554-2.6-2.312c-0.004,0.009-0.008,0.017-0.013,0.026
	c1.843,5.298,3.948,10.663,5,16.188c0.274,1.437,0.501,2.837,0.685,4.201c2.568,19.123-3.559,31.609-13.291,48.034
	c-0.697,1.178-1.414,2.374-2.145,3.596c-2.225,3.71-3.651,7.224-4.477,10.522c-0.275,1.099-0.483,2.175-0.633,3.226
	c19.084,3.081,47.781,3.655,77.143-10.773c0,0-5.758-8.463-14.423-20.097c-1.937-2.6-3.889-5.199-5.858-7.79
	C240.173,173.979,239.99,173.743,239.809,173.507z"/>
<path fill="#FFFFFF" d="M194.308,239.685c0,0-1.475-1.168-3.346-3.322c-0.439-0.505-0.891-1.044-1.361-1.659
	c-0.353-0.462-0.711-0.954-1.069-1.475c-0.238-0.348-0.475-0.708-0.711-1.082c-0.707-1.121-1.394-2.357-2.016-3.703
	c-0.622-1.345-1.179-2.802-1.622-4.36c-0.296-1.039-0.541-2.124-0.725-3.254c-0.274-1.694-0.404-3.487-0.345-5.373
	c0.033-1.038,0.138-2.112,0.294-3.205c0.15-1.051,0.358-2.126,0.633-3.226c0.825-3.299,2.251-6.812,4.477-10.523
	c0.006-0.01,0.012-0.02,0.018-0.031c0.726-1.211,1.436-2.398,2.127-3.565c9.732-16.425,15.859-28.911,13.291-48.033
	c-0.184-1.366-0.411-2.764-0.685-4.201c-0.146,0.993-0.295,1.848-0.448,2.565c-0.014,0.071-0.03,0.135-0.045,0.204
	c-0.098,0.437-0.196,0.832-0.296,1.129c-4.228,12.511-11.257,22.236-20.832,32.63c-1.298,1.409-2.657,2.837-4.048,4.279
	c-2.341,2.426-4.796,4.905-7.393,7.49c-1.036,1.03-2.092,2.076-3.168,3.142c-0.987,0.977-2.285,2.309-3.75,3.85l0,0
	c-0.905,2.532-1.934,5.389-2.802,8.395c-0.392-0.149-0.765-0.282-1.164-0.436c-18.602-7.196-31.055-16.808-31.055-16.808
	s9.581,12.477,25.726,24.189c1.563,1.135,3.103,2.115,4.613,2.986c-0.666,10.541,3.985,20.663,24.976,23.679
	c3.549,0.51,7.182,0.486,10.843,0.074c-0.037-0.109-0.065-0.196-0.085-0.259C194.318,239.719,194.308,239.685,194.308,239.685z"/>
<path fill="#00d0ff" d="M194.671,240.681c-0.022-0.066-0.033-0.101-0.033-0.101s-1.548-1.226-3.512-3.487
	c-0.46-0.53-0.935-1.096-1.428-1.741c-0.371-0.485-0.747-1.001-1.122-1.548c-0.25-0.365-0.499-0.743-0.747-1.136
	c-0.742-1.176-1.463-2.474-2.116-3.886s-1.237-2.941-1.703-4.576c-0.311-1.091-0.568-2.229-0.761-3.415
	c-0.287-1.778-0.424-3.66-0.362-5.639c0.032-1.006,0.134-2.046,0.278-3.102c-14.322-3.055-20.903-5.948-23.695-7.535
	c-0.11,0.361-0.224,0.717-0.33,1.083c-0.411-0.156-0.803-0.296-1.222-0.457c-19.523-7.552-32.594-17.641-32.594-17.641
	s10.056,13.095,27.001,25.388c1.641,1.191,3.257,2.22,4.841,3.134c-0.699,11.063,4.182,21.686,26.213,24.853
	c3.725,0.535,7.538,0.511,11.381,0.078C194.722,240.838,194.693,240.746,194.671,240.681z"/>
</svg>
