<?xml version="1.0" encoding="utf-8"?>
<!-- Generator: Adobe Illustrator 17.0.0, SVG Export Plug-In . SVG Version: 6.00 Build 0)  -->
<!DOCTYPE svg PUBLIC "-//W3C//DTD SVG 1.1//EN" "http://www.w3.org/Graphics/SVG/1.1/DTD/svg11.dtd">
<svg version="1.1" id="Social_Icons" xmlns="http://www.w3.org/2000/svg" xmlns:xlink="http://www.w3.org/1999/xlink" x="0px"
	 y="0px" width="300px" height="300px" viewBox="0 0 300 300" enable-background="new 0 0 300 300" xml:space="preserve">
<path id="Shopify_1_" fill="#00d0ff" d="M162.989,50.216c0-0.996,0.009-1.974,0.009-3.044c0-9.323-1.291-16.837-3.357-22.788
	c8.304,1.042,13.834,10.539,17.39,21.462C172.868,47.145,168.129,48.616,162.989,50.216z M144.653,143.176
	c0,0-9.714-5.21-21.62-5.21c-17.463,0-18.345,11.014-18.345,13.784c0,15.146,39.275,20.95,39.275,56.416
	c0,27.897-17.609,45.868-41.357,45.868c-28.496,0-43.066-17.824-43.066-17.824l7.63-25.329c0,0,14.979,12.925,27.623,12.925
	c8.249,0,11.615-6.536,11.615-11.307c0-19.753-32.225-20.64-32.225-53.098c0-27.312,19.511-53.747,58.893-53.747
	c15.171,0,22.676,4.369,22.676,4.369L144.653,143.176z M138.186,15.619c1.627,0,3.256,0.558,4.822,1.636
	c-12.034,5.685-24.922,20.018-30.37,48.628c-7.959,2.477-15.736,4.899-22.929,7.139C96.082,51.194,111.226,15.619,138.186,15.619z
	 M153.156,51.642c0,0.576-0.009,1.106-0.009,1.636c-9.141,2.843-19.065,5.932-29.015,9.031
	c5.585-21.663,16.055-32.129,25.214-36.078C151.648,32.044,153.156,40.39,153.156,51.642z M196.371,39.999
	c-0.594,0.078-1.108,0.194-1.467,0.299c-0.192,0.055-3.393,1.051-8.695,2.696c-5.192-15.009-14.351-28.802-30.459-28.802
	c-0.446,0-0.91,0.018-1.364,0.046c-4.584-6.088-10.26-8.738-15.162-8.738c-37.538,0-55.474,47.166-61.096,71.123
	c-14.588,4.543-24.949,7.77-26.268,8.19c-8.149,2.569-8.405,2.824-9.467,10.53c-0.809,5.841-22.111,171.405-22.111,171.405
	L186.273,298l0.176-0.039L196.371,39.999z M208.256,48.123c4.792,4.783,10.226,10.201,10.226,10.201s22.365,1.664,23.421,1.755
	c1.065,0.091,2.347,0.905,2.546,2.377c0.201,1.472,31.771,215.993,31.771,215.993l-77.469,16.839L208.256,48.123z"/>
</svg>
