<?xml version="1.0" encoding="utf-8"?>
<!-- Generator: Adobe Illustrator 17.0.0, SVG Export Plug-In . SVG Version: 6.00 Build 0)  -->
<!DOCTYPE svg PUBLIC "-//W3C//DTD SVG 1.1//EN" "http://www.w3.org/Graphics/SVG/1.1/DTD/svg11.dtd">
<svg version="1.1" id="Layer_1" xmlns="http://www.w3.org/2000/svg" xmlns:xlink="http://www.w3.org/1999/xlink" x="0px" y="0px"
	 width="300px" height="300px" viewBox="0 0 300 300" enable-background="new 0 0 300 300" xml:space="preserve">
<g>
	<path fill="#00d0ff" d="M266.953,35.464h-21.93h-0.628c0,0-0.328,0.177-0.9,0.502c-7.487,3.414-14.947,7.457-22.341,12.059
		c-12.946,9.162-31.097,23.09-49.869,40.958C141.838,119.483,115.469,159.2,95.5,205.434L58.733,102.978l-34.261-1.008
		l57.941,153.671h22.263c2.529-8.473,5.329-16.972,8.424-25.476c34.328-94.32,95.225-165.635,157.856-194.199
		c0.572-0.325,0.9-0.502,0.9-0.502H266.953z"/>
	<polygon fill="#00d0ff" points="225.406,142.049 201.867,219.042 177.837,142.049 164.596,142.049 138.605,255.641 
		162.144,255.641 174.041,177.849 191.622,255.641 207.951,255.641 230.31,177.849 241.49,255.641 262.819,255.641 239.628,142.049 
			"/>
</g>
</svg>
