<?xml version="1.0" ?><svg enable-background="new 0 0 193.296 192.737" id="Layer_1" version="1.1" viewBox="0 0 193.296 192.737" xml:space="preserve" xmlns="http://www.w3.org/2000/svg" xmlns:xlink="http://www.w3.org/1999/xlink"><g id="Layer_2"/><g id="Fixed"><path d="M97.46,2.573c-52.1,0-94.5,42.4-94.5,94.5s42.4,94.5,94.5,94.5s94.5-42.4,94.5-94.5   S149.56,2.573,97.46,2.573z M12.46,97.073c0-12.3,2.6-24,7.4-34.6l40.5,111C32.06,159.773,12.46,130.673,12.46,97.073z    M97.46,182.073c-8.3,0-16.4-1.2-24-3.5l25.5-74.1l26.1,71.5c0.2,0.4,0.4,0.8,0.6,1.2C116.86,180.373,107.36,182.073,97.46,182.073   z M109.16,57.273c5.1-0.3,9.7-0.8,9.7-0.8c4.6-0.5,4-7.3-0.5-7c0,0-13.8,1.1-22.6,1.1c-8.3,0-22.4-1.1-22.4-1.1   c-4.6-0.3-5.1,6.7-0.5,7c0,0,4.3,0.5,8.9,0.8l13.2,36.3l-18.6,55.8l-30.9-92c5.1-0.3,9.7-0.8,9.7-0.8c4.6-0.5,4-7.3-0.5-7   c0,0-13.8,1.1-22.6,1.1c-1.6,0-3.5,0-5.5-0.1c15.2-23.1,41.3-38.3,71-38.3c22.1,0,42.3,8.5,57.4,22.3c-0.4,0-0.7-0.1-1.1-0.1   c-8.3,0-14.3,7.3-14.3,15.1c0,7,4,12.9,8.3,19.9c3.2,5.7,7,12.9,7,23.4c0,7.3-2.8,15.7-6.5,27.5l-8.5,28.3L109.16,57.273z    M172.06,56.273c6.6,12.1,10.4,26,10.4,40.8c0,31.3-17,58.7-42.2,73.4l26-75c4.8-12.1,6.5-21.8,6.5-30.4   C172.56,61.973,172.36,59.073,172.06,56.273z" fill="#00d0ff"/></g></svg>